# xmcd
#
# Track frame offsets:
#	150
#	11820
#	26567
#	37207
#	50547
#	60295
#	73685
#	85155
#	100280
#	116852
#	129817
#	145607
#	160587
#	173605
#	188275
#	211320
#
# Disc length: 2830 seconds
#
# Revision: 2
# Processed by: cddbd v1.5.1PL2 Copyright (c) Steve Scherf et al.
# Submitted via: audiograbber 1.83.01
#
DISCID=cd0b0c10
DTITLE=Sound Choice - SC8262
DYEAR=1900
DGENRE=
TTITLE0=Jones, George - Walk Through This World With Me
TTITLE1=Butler, Carl - Don't Let Me Cross Over
TTITLE2=Ives, Burl - A Little Bitty Tear
TTITLE3=Arnold, Eddy - The Cattle Call
TTITLE4=Pierce, Webb - I Ain't Never
TTITLE5=Owens, Buck - Under Your Spell Again
TTITLE6=James, Sonny - You're The Only World I Know
TTITLE7=Cash, Johnny - Don't Take Your Guns To Town
TTITLE8=Clark, Roy - Yesterday When I Was Young
TTITLE9=Wynette, Tammy - I Don't Wanna Play House
TTITLE10=Twitty, Conway - Slow Hand
TTITLE11=Duet, Johnny Cash and June Carter - Jackson
TTITLE12=Bandy, Moe - It's A Cheating Situation
TTITLE13=Milsap, Ronnie - A Legend In My Time
TTITLE14=Statler Brothers - Do You Know You Are My
TTITLE15=data track - Data Track
EXTD=
EXTT0=
EXTT1=
EXTT2=
EXTT3=
EXTT4=
EXTT5=
EXTT6=
EXTT7=
EXTT8=
EXTT9=
EXTT10=
EXTT11=
EXTT12=
EXTT13=
EXTT14=
EXTT15=
PLAYORDER=
